HIERARCHY
ROOT Hips
{
	OFFSET 0.00000 0.00000 0.00000
	CHANNELS 6 Xposition Yposition Zposition Zrotation Yrotation Xrotation 
	JOINT LHipJoint
	{
		OFFSET 0 0 0
		CHANNELS 3 Zrotation Yrotation Xrotation
		JOINT LeftUpLeg
		{
			OFFSET 1.48831 -1.59570 0.95625
			CHANNELS 3 Zrotation Yrotation Xrotation
			JOINT LeftLeg
			{
				OFFSET 2.20856 -6.06797 0.00000
				CHANNELS 3 Zrotation Yrotation Xrotation
				JOINT LeftFoot
				{
					OFFSET 2.62924 -7.22379 0.00000
					CHANNELS 3 Zrotation Yrotation Xrotation
					JOINT LeftToeBase
					{
						OFFSET 0.16802 -0.46163 2.41673
						CHANNELS 3 Zrotation Yrotation Xrotation
						End Site
						{
							OFFSET 0.00000 -0.00000 1.23760
						}
					}
				}
			}
		}
	}
	JOINT RHipJoint
	{
		OFFSET 0 0 0
		CHANNELS 3 Zrotation Yrotation Xrotation
		JOINT RightUpLeg
		{
			OFFSET -1.56796 -1.59570 0.95625
			CHANNELS 3 Zrotation Yrotation Xrotation
			JOINT RightLeg
			{
				OFFSET -2.29239 -6.29829 0.00000
				CHANNELS 3 Zrotation Yrotation Xrotation
				JOINT RightFoot
				{
					OFFSET -2.66963 -7.33475 0.00000
					CHANNELS 3 Zrotation Yrotation Xrotation
					JOINT RightToeBase
					{
						OFFSET -0.18185 -0.49964 2.34359
						CHANNELS 3 Zrotation Yrotation Xrotation
						End Site
						{
							OFFSET -0.00000 -0.00000 1.20477
						}
					}
				}
			}
		}
	}
	JOINT LowerBack
	{
		OFFSET 0 0 0
		CHANNELS 3 Zrotation Yrotation Xrotation
		JOINT Spine
		{
			OFFSET 0.03505 2.15832 -0.34324
			CHANNELS 3 Zrotation Yrotation Xrotation
			JOINT Spine1
			{
				OFFSET -0.01089 2.17963 0.04689
				CHANNELS 3 Zrotation Yrotation Xrotation
				JOINT Neck
				{
					OFFSET 0 0 0
					CHANNELS 3 Zrotation Yrotation Xrotation
					JOINT Neck1
					{
						OFFSET 0.04686 1.69404 0.22159
						CHANNELS 3 Zrotation Yrotation Xrotation
						JOINT Head
						{
							OFFSET 0.00265 1.69305 -0.01513
							CHANNELS 3 Zrotation Yrotation Xrotation
							End Site
							{
								OFFSET -0.00415 1.80215 -0.03034
							}
						}
					}
				}
				JOINT LeftShoulder
				{
					OFFSET 0 0 0
					CHANNELS 3 Zrotation Yrotation Xrotation
					JOINT LeftArm
					{
						OFFSET 3.67184 1.11724 -0.19002
						CHANNELS 3 Zrotation Yrotation Xrotation
						JOINT LeftForeArm
						{
							OFFSET 5.17714 -0.00000 -0.00000
							CHANNELS 3 Zrotation Yrotation Xrotation
							JOINT LeftHand
							{
								OFFSET 3.43679 -0.00000 -0.00000
								CHANNELS 3 Zrotation Yrotation Xrotation
								JOINT LeftFingerBase
								{
									OFFSET 0 0 0
									CHANNELS 3 Zrotation Yrotation Xrotation
									JOINT LeftHandIndex1
									{
										OFFSET 0.57312 -0.00000 -0.00000
										CHANNELS 3 Zrotation Yrotation Xrotation
										End Site
										{
											OFFSET 0.46206 -0.00000 -0.00000
										}
									}
								}
								JOINT LThumb
								{
									OFFSET 0 0 0
									CHANNELS 3 Zrotation Yrotation Xrotation
									End Site
									{
										OFFSET 0.46912 -0.00000 0.46912
									}
								}
							}
						}
					}
				}
				JOINT RightShoulder
				{
					OFFSET 0 0 0
					CHANNELS 3 Zrotation Yrotation Xrotation
					JOINT RightArm
					{
						OFFSET -3.59596 0.95831 -0.26050
						CHANNELS 3 Zrotation Yrotation Xrotation
						JOINT RightForeArm
						{
							OFFSET -5.23908 -0.00000 -0.00000
							CHANNELS 3 Zrotation Yrotation Xrotation
							JOINT RightHand
							{
								OFFSET -3.46485 -0.00000 -0.00000
								CHANNELS 3 Zrotation Yrotation Xrotation
								JOINT RightFingerBase
								{
									OFFSET 0 0 0
									CHANNELS 3 Zrotation Yrotation Xrotation
									JOINT RightHandIndex1
									{
										OFFSET -0.60875 -0.00000 -0.00000
										CHANNELS 3 Zrotation Yrotation Xrotation
										End Site
										{
											OFFSET -0.49079 -0.00000 -0.00000
										}
									}
								}
								JOINT RThumb
								{
									OFFSET 0 0 0
									CHANNELS 3 Zrotation Yrotation Xrotation
									End Site
									{
										OFFSET -0.49829 -0.00000 0.49829
									}
								}
							}
						}
					}
				}
			}
		}
	}
}
MOTION
Frames: 16
Frame Time: .0083333
5.1357 16.534 -5.1612 0 0 0 0 0 0 -21 0 0 0 0 0 0 0 0 0 0 0 0 0 0 21 0 0 0 0 0 0 0 0 0 0 0 0 0 0 0 0 0 0 0 0 0 0 -16 0 0 21 0 0 11 0 0 0 -8 0 0 0 0 0 0 0 0 0 0 0 0 0 0 0 0 0 0 0 0 8 0 0 0 0 0 0 0 0 0 0 0 0 0 0 0 0 0
5.1357 16.5340 -5.1612 -147.8470 -82.9511 148.0260 0.0000 0.0000 0.0000 -16.1946 4.7202 -0.9416 0.9113 6.0830 17.0254 1.0101 12.1598 -26.9469 0.0327 1.1680 3.2111 0.0000 0.0000 0.0000 23.2814 6.3070 -7.9511 -2.8715 -10.4841 30.5590 -1.6035 -3.6106 -25.4493 -0.0091 -0.6157 1.6920 1.1762 -2.3225 -2.8994 1.3684 -3.2405 2.5831 0.5389 -1.6089 4.3032 -5.8153 -10.8844 -2.0221 12.2283 -15.1045 3.0666 3.9899 -7.4300 2.6252 0.0000 -0.0000 0.0000 -90.4860 -1.4309 31.3338 11.4469 -18.9700 -1.9187 -0.0000 0.0000 -13.5731 19.3438 12.4663 4.3336 -7.1250 0.0000 -0.0000 -7.1888 43.0523 0.3475 0.0000 -0.0000 0.0000 90.0455 1.1516 20.1161 -13.0858 21.4128 -2.4845 0.0000 0.0000 7.2258 -17.7439 -6.2292 1.9885 7.1250 -0.0000 -0.0000 7.5706 -36.4273 1.6073
5.1345 16.5334 -5.1607 -147.9450 -82.9496 148.1110 0.0000 0.0000 0.0000 -16.2060 4.7494 -0.9280 0.9101 6.0791 17.0140 0.9994 12.2005 -26.9038 0.0308 1.1332 3.1153 0.0000 0.0000 0.0000 23.2681 6.3023 -7.9412 -2.8734 -10.4873 30.5696 -1.6073 -3.5875 -25.4660 -0.0098 -0.6398 1.7582 1.1678 -2.3255 -2.9094 1.3629 -3.2443 2.5949 0.5370 -1.6109 4.3213 -5.8256 -10.8777 -2.0273 12.2361 -15.0945 3.0595 3.9941 -7.4250 2.6245 0.0000 -0.0000 0.0000 -90.4955 -1.4566 31.2785 11.4319 -18.9472 -1.9138 -0.0000 0.0000 -13.5572 19.3363 12.4115 4.3131 -7.1250 0.0000 -0.0000 -7.1850 42.9943 0.3576 0.0000 -0.0000 0.0000 90.0368 1.1540 20.1606 -13.0980 21.4306 -2.4890 0.0000 0.0000 7.1697 -17.7315 -6.2202 1.9842 7.1250 -0.0000 -0.0000 7.5797 -36.4172 1.6111
5.1333 16.5332 -5.1599 -148.0300 -82.9492 148.1810 0.0000 0.0000 0.0000 -16.2225 4.7201 -0.8941 0.9112 6.0826 17.0241 1.0140 12.1602 -26.9759 0.0339 1.1890 3.2689 0.0000 0.0000 0.0000 23.2568 6.2881 -7.9223 -2.8728 -10.4862 30.5659 -1.6032 -3.6083 -25.4463 -0.0080 -0.5774 1.5867 1.1575 -2.3227 -2.9080 1.3593 -3.2402 2.6020 0.5391 -1.6091 4.3282 -5.8150 -10.8746 -2.0534 12.2185 -15.0917 3.0895 3.9853 -7.4220 2.6352 -0.0000 -0.0000 0.0000 -90.5041 -1.4611 31.2508 11.4312 -18.9462 -1.9136 -0.0000 0.0000 -13.4901 19.3198 12.4267 4.3143 -7.1250 0.0000 -0.0000 -7.2027 43.0085 0.3560 -0.0000 -0.0000 0.0000 90.0328 1.1527 20.1511 -13.1076 21.4447 -2.4925 0.0000 0.0000 7.1861 -17.7175 -6.2043 1.9775 7.1250 -0.0000 -0.0000 7.5893 -36.3998 1.6164
5.1327 16.5334 -5.1598 -147.8990 -82.9373 148.0620 0.0000 0.0000 0.0000 -16.1982 4.7409 -0.9185 0.9122 6.0858 17.0336 1.0122 12.1545 -26.9577 0.0328 1.1685 3.2127 0.0000 0.0000 0.0000 23.2796 6.3074 -7.9239 -2.8721 -10.4850 30.5620 -1.6058 -3.5965 -25.4599 -0.0092 -0.6194 1.7022 1.1657 -2.3238 -2.9305 1.3661 -3.2428 2.6022 0.5404 -1.6101 4.3411 -5.8217 -10.8698 -2.0453 12.2251 -15.0853 3.0857 3.9892 -7.4192 2.6332 -0.0000 0.0000 0.0000 -90.5016 -1.4708 31.2656 11.4343 -18.9508 -1.9146 -0.0000 0.0000 -13.5156 19.3194 12.4425 4.3196 -7.1250 0.0000 -0.0000 -7.2061 43.0249 0.3532 -0.0000 0.0000 0.0000 90.0248 1.1610 20.1563 -13.1044 21.4399 -2.4913 0.0000 0.0000 7.1457 -17.6965 -6.1458 1.9565 7.1250 -0.0000 -0.0000 7.5991 -36.3381 1.6301
5.1320 16.5334 -5.1594 -147.8110 -82.9277 147.9780 0.0000 0.0000 0.0000 -16.1830 4.7440 -0.9282 0.9137 6.0907 17.0478 1.0147 12.1425 -26.9651 0.0330 1.1722 3.2229 0.0000 0.0000 0.0000 23.2948 6.3121 -7.9193 -2.8707 -10.4827 30.5544 -1.6056 -3.6000 -25.4597 -0.0093 -0.6215 1.7079 1.1749 -2.3226 -2.9425 1.3688 -3.2422 2.6035 0.5375 -1.6095 4.3489 -5.8212 -10.8669 -2.0491 12.2227 -15.0819 3.0930 3.9883 -7.4172 2.6354 0.0000 -0.0000 0.0000 -90.5015 -1.4769 31.2664 11.4354 -18.9526 -1.9150 -0.0000 0.0000 -13.5100 19.3137 12.4470 4.3198 -7.1250 0.0000 -0.0000 -7.2121 43.0290 0.3528 0.0000 -0.0000 0.0000 90.0215 1.1614 20.1535 -13.1076 21.4447 -2.4925 0.0000 0.0000 7.1345 -17.6815 -6.1193 1.9463 7.1250 -0.0000 -0.0000 7.6082 -36.3097 1.6374
5.1314 16.5335 -5.1590 -147.7160 -82.9207 147.8880 0.0000 0.0000 0.0000 -16.1682 4.7452 -0.9440 0.9158 6.0975 17.0675 1.0176 12.1271 -26.9729 0.0332 1.1761 3.2335 0.0000 0.0000 0.0000 23.3090 6.3146 -7.9170 -2.8690 -10.4799 30.5452 -1.6052 -3.6042 -25.4586 -0.0093 -0.6231 1.7122 1.1835 -2.3218 -2.9535 1.3710 -3.2419 2.6032 0.5346 -1.6092 4.3546 -5.8191 -10.8653 -2.0545 12.2184 -15.0805 3.1035 3.9862 -7.4161 2.6388 0.0000 -0.0000 0.0000 -90.4994 -1.4798 31.2768 11.4390 -18.9580 -1.9161 -0.0000 0.0000 -13.5111 19.3106 12.4512 4.3205 -7.1250 0.0000 -0.0000 -7.2156 43.0330 0.3522 0.0000 -0.0000 0.0000 90.0207 1.1593 20.1427 -13.1121 21.4512 -2.4941 0.0000 0.0000 7.1341 -17.6655 -6.0988 1.9379 7.1250 -0.0000 -0.0000 7.6188 -36.2875 1.6439
5.1310 16.5336 -5.1587 -147.6100 -82.9139 147.7900 0.0000 0.0000 0.0000 -16.1523 4.7464 -0.9601 0.9173 6.1023 17.0816 1.0190 12.1172 -26.9746 0.0332 1.1767 3.2352 0.0000 0.0000 0.0000 23.3243 6.3184 -7.9179 -2.8677 -10.4778 30.5381 -1.6050 -3.6075 -25.4593 -0.0094 -0.6270 1.7229 1.1932 -2.3213 -2.9637 1.3735 -3.2420 2.6017 0.5312 -1.6089 4.3584 -5.8186 -10.8645 -2.0572 12.2158 -15.0802 3.1123 3.9850 -7.4156 2.6416 0.0000 -0.0000 0.0000 -90.4963 -1.4817 31.2906 11.4425 -18.9633 -1.9172 -0.0000 0.0000 -13.5161 19.3069 12.4525 4.3200 -7.1250 0.0000 -0.0000 -7.2192 43.0339 0.3522 0.0000 -0.0000 0.0000 90.0203 1.1561 20.1342 -13.1155 21.4562 -2.4954 0.0000 0.0000 7.1363 -17.6552 -6.0860 1.9327 7.1250 -0.0000 -0.0000 7.6258 -36.2736 1.6480
5.1305 16.5337 -5.1583 -147.5370 -82.9104 147.7230 0.0000 0.0000 0.0000 -16.1425 4.7472 -0.9715 0.9183 6.1056 17.0912 1.0198 12.1108 -26.9749 0.0332 1.1754 3.2317 0.0000 0.0000 0.0000 23.3333 6.3179 -7.9194 -2.8668 -10.4763 30.5332 -1.6048 -3.6099 -25.4584 -0.0094 -0.6275 1.7244 1.1983 -2.3215 -2.9714 1.3742 -3.2426 2.6005 0.5288 -1.6090 4.3612 -5.8192 -10.8647 -2.0580 12.2137 -15.0811 3.1204 3.9841 -7.4159 2.6441 -0.0000 0.0000 0.0000 -90.4937 -1.4823 31.3020 11.4464 -18.9692 -1.9185 -0.0000 0.0000 -13.5172 19.3014 12.4568 4.3202 -7.1250 0.0000 -0.0000 -7.2250 43.0379 0.3518 -0.0000 0.0000 0.0000 90.0197 1.1539 20.1294 -13.1163 21.4574 -2.4957 0.0000 0.0000 7.1427 -17.6516 -6.0833 1.9314 7.1250 -0.0000 -0.0000 7.6284 -36.2706 1.6492
5.1300 16.5339 -5.1579 -147.4940 -82.9102 147.6850 0.0000 0.0000 0.0000 -16.1382 4.7476 -0.9802 0.9189 6.1075 17.0968 1.0203 12.1059 -26.9736 0.0331 1.1742 3.2282 0.0000 0.0000 0.0000 23.3367 6.3170 -7.9214 -2.8663 -10.4754 30.5303 -1.6047 -3.6111 -25.4584 -0.0095 -0.6277 1.7250 1.1987 -2.3221 -2.9773 1.3735 -3.2434 2.5990 0.5275 -1.6094 4.3630 -5.8214 -10.8658 -2.0573 12.2126 -15.0833 3.1282 3.9838 -7.4168 2.6465 -0.0000 -0.0000 0.0000 -90.4913 -1.4828 31.3103 11.4498 -18.9744 -1.9196 -0.0000 0.0000 -13.5142 19.2951 12.4593 4.3195 -7.1250 0.0000 -0.0000 -7.2312 43.0398 0.3518 -0.0000 -0.0000 0.0000 90.0196 1.1525 20.1262 -13.1149 21.4554 -2.4952 0.0000 0.0000 7.1494 -17.6479 -6.0851 1.9315 7.1250 -0.0000 -0.0000 7.6318 -36.2723 1.6496
5.1295 16.5340 -5.1576 -147.4930 -82.9126 147.6860 0.0000 0.0000 0.0000 -16.1405 4.7490 -0.9830 0.9190 6.1079 17.0979 1.0204 12.1029 -26.9719 0.0329 1.1710 3.2195 0.0000 0.0000 0.0000 23.3335 6.3141 -7.9224 -2.8662 -10.4753 30.5299 -1.6049 -3.6095 -25.4592 -0.0094 -0.6271 1.7232 1.1934 -2.3228 -2.9810 1.3709 -3.2441 2.5979 0.5276 -1.6097 4.3640 -5.8250 -10.8671 -2.0530 12.2137 -15.0858 3.1331 3.9845 -7.4181 2.6479 0.0000 -0.0000 0.0000 -90.4887 -1.4816 31.3163 11.4533 -18.9797 -1.9208 -0.0000 0.0000 -13.5102 19.2861 12.4632 4.3186 -7.1250 0.0000 -0.0000 -7.2400 43.0429 0.3516 0.0000 -0.0000 0.0000 90.0205 1.1513 20.1218 -13.1116 21.4506 -2.4940 0.0000 0.0000 7.1597 -17.6485 -6.0894 1.9330 7.1250 -0.0000 -0.0000 7.6318 -36.2768 1.6487
5.1290 16.5341 -5.1573 -147.4930 -82.9135 147.6890 0.0000 0.0000 0.0000 -16.1421 4.7493 -0.9848 0.9190 6.1077 17.0973 1.0208 12.0995 -26.9720 0.0330 1.1725 3.2235 0.0000 0.0000 0.0000 23.3319 6.3165 -7.9234 -2.8663 -10.4755 30.5306 -1.6051 -3.6102 -25.4611 -0.0094 -0.6271 1.7232 1.1880 -2.3232 -2.9842 1.3685 -3.2442 2.5970 0.5281 -1.6099 4.3652 -5.8298 -10.8684 -2.0477 12.2165 -15.0881 3.1361 3.9861 -7.4194 2.6487 0.0000 -0.0000 0.0000 -90.4857 -1.4818 31.3188 11.4558 -18.9835 -1.9216 -0.0000 0.0000 -13.5048 19.2749 12.4681 4.3176 -7.1250 0.0000 -0.0000 -7.2510 43.0468 0.3515 0.0000 -0.0000 0.0000 90.0217 1.1536 20.1151 -13.1056 21.4417 -2.4917 0.0000 0.0000 7.1683 -17.6401 -6.0915 1.9327 7.1250 -0.0000 -0.0000 7.6391 -36.2786 1.6500
5.1287 16.5342 -5.1571 -147.5000 -82.9153 147.6990 0.0000 0.0000 0.0000 -16.1449 4.7488 -0.9863 0.9188 6.1072 17.0957 1.0209 12.0975 -26.9706 0.0330 1.1733 3.2259 0.0000 0.0000 0.0000 23.3291 6.3206 -7.9252 -2.8667 -10.4760 30.5325 -1.6054 -3.6122 -25.4643 -0.0094 -0.6274 1.7240 1.1816 -2.3232 -2.9850 1.3656 -3.2437 2.5953 0.5287 -1.6098 4.3640 -5.8339 -10.8702 -2.0461 12.2179 -15.0914 3.1431 3.9868 -7.4209 2.6512 0.0000 0.0000 0.0000 -90.4826 -1.4803 31.3187 11.4585 -18.9877 -1.9225 -0.0000 0.0000 -13.4998 19.2650 12.4706 4.3161 -7.1250 0.0000 -0.0000 -7.2603 43.0483 0.3517 0.0000 0.0000 0.0000 90.0259 1.1533 20.1000 -13.1016 21.4359 -2.4903 0.0000 0.0000 7.1809 -17.6285 -6.0841 1.9290 7.1250 -0.0000 -0.0000 7.6478 -36.2702 1.6535
5.1284 16.5342 -5.1570 -147.4940 -82.9139 147.6970 0.0000 0.0000 0.0000 -16.1439 4.7475 -0.9886 0.9188 6.1071 17.0955 1.0216 12.0930 -26.9722 0.0334 1.1792 3.2419 0.0000 0.0000 0.0000 23.3310 6.3311 -7.9255 -2.8670 -10.4766 30.5343 -1.6059 -3.6157 -25.4696 -0.0095 -0.6309 1.7337 1.1773 -2.3222 -2.9852 1.3635 -3.2418 2.5933 0.5291 -1.6089 4.3621 -5.8368 -10.8718 -2.0455 12.2183 -15.0944 3.1507 3.9869 -7.4222 2.6539 0.0000 -0.0000 0.0000 -90.4785 -1.4779 31.3181 11.4617 -18.9924 -1.9235 -0.0000 0.0000 -13.4953 19.2525 12.4766 4.3151 -7.1250 0.0000 -0.0000 -7.2727 43.0533 0.3514 0.0000 -0.0000 0.0000 90.0297 1.1541 20.0877 -13.0960 21.4278 -2.4883 0.0000 0.0000 7.1857 -17.6180 -6.0722 1.9240 7.1250 -0.0000 -0.0000 7.6550 -36.2573 1.6575
5.1281 16.5342 -5.1568 -147.5120 -82.9144 147.7160 0.0000 0.0000 0.0000 -16.1465 4.7473 -0.9907 0.9189 6.1076 17.0970 1.0221 12.0898 -26.9726 0.0336 1.1824 3.2508 0.0000 0.0000 0.0000 23.3286 6.3376 -7.9262 -2.8674 -10.4772 30.5364 -1.6061 -3.6178 -25.4724 -0.0096 -0.6338 1.7416 1.1700 -2.3209 -2.9843 1.3599 -3.2395 2.5924 0.5297 -1.6079 4.3608 -5.8370 -10.8729 -2.0492 12.2164 -15.0967 3.1609 3.9857 -7.4231 2.6576 -0.0000 0.0000 0.0000 -90.4735 -1.4762 31.3162 11.4647 -18.9970 -1.9245 -0.0000 0.0000 -13.4929 19.2423 12.4825 4.3147 -7.1250 0.0000 -0.0000 -7.2830 43.0584 0.3509 -0.0000 0.0000 0.0000 90.0358 1.1549 20.0685 -13.0927 21.4229 -2.4870 0.0000 0.0000 7.1898 -17.6033 -6.0568 1.9174 7.1250 -0.0000 -0.0000 7.6652 -36.2404 1.6629
5.1278 16.5342 -5.1568 -147.5100 -82.9129 147.7170 0.0000 0.0000 0.0000 -16.1455 4.7452 -0.9954 0.9194 6.1090 17.1010 1.0222 12.0892 -26.9733 0.0336 1.1839 3.2549 0.0000 0.0000 0.0000 23.3303 6.3464 -7.9271 -2.8677 -10.4777 30.5379 -1.6065 -3.6202 -25.4765 -0.0097 -0.6371 1.7508 1.1648 -2.3194 -2.9859 1.3576 -3.2371 2.5927 0.5302 -1.6068 4.3622 -5.8372 -10.8734 -2.0552 12.2151 -15.0983 3.1708 3.9846 -7.4234 2.6616 0.0000 0.0000 0.0000 -90.4692 -1.4764 31.3109 11.4671 -19.0006 -1.9252 -0.0000 0.0000 -13.4884 19.2321 12.4875 4.3139 -7.1250 0.0000 -0.0000 -7.2931 43.0624 0.3507 0.0000 0.0000 0.0000 90.0418 1.1579 20.0497 -13.0906 21.4198 -2.4863 0.0000 0.0000 7.1929 -17.5906 -6.0441 1.9119 7.1250 -0.0000 -0.0000 7.6741 -36.2266 1.6675
